<svg width="896" height="896" xmlns="http://www.w3.org/2000/svg">

 <g>
  <title>background</title>
  <rect fill="none" id="canvas_background" height="402" width="582" y="-1" x="-1"/>
 </g>
 <g>
  <title>Layer 1</title>
  <ellipse ry="380" rx="380" id="svg_18" cy="457" cx="441.5" stroke-opacity="null" stroke-width="null" stroke="null" fill="#401684"/>
  <g stroke="null" id="svg_1">
   <path stroke="null" fill="#4caf50" id="svg_2" d="m439.511072,223.047804l1.056263,1.736402l2.08067,0.648679l1.873598,0.045487c4.400268,-11.675226 -5.828862,-11.675226 -13.987277,-13.156507l-4.112558,0.878089l0.692893,3.100011l12.396411,6.747839zm100.175782,15.485224l1.68146,0.241277c4.194192,-2.352449 9.420755,2.838958 11.162942,-4.082918c-5.226563,0 -8.710938,-1.730469 -13.9375,0c0,0 0,3.460938 1.093098,3.841641zm-37.525724,-3.755612l6.31767,-0.10185c-1.24442,-5.175585 -13.439732,-8.636523 -13.439732,-1.714647c-1.742188,1.730469 3.484375,1.730469 7.122063,1.816498zm-123.849622,-98.72275c-3.484375,5.191406 -3.484375,-3.460938 -6.883134,-1.076846l-1.453482,0.685266c-5.600884,7.313456 -19.538384,9.043924 -17.796197,21.157206c12.195313,-1.730469 19.164063,-10.382813 26.132813,-20.765626zm42.719434,64.25379c-8.935929,-4.437911 -8.935929,4.437911 -10.022058,11.945179l2.817366,2.912132c7.204692,-1.543578 11.672656,-10.4194 7.204692,-14.857311zm-37.492871,-69.445196c0,1.316145 -1.010469,3.632007 -2.259866,5.427739c1.783004,-1.261759 4.002054,0.112728 4.002054,1.494136c0,6.921875 -10.453125,1.730469 -10.453125,8.652344c1.742188,0 3.484375,0 1.742188,1.730469s-5.226563,1.730469 -6.96875,3.460938l6.96875,0c-0.871094,2.595703 -3.92042,3.027826 -6.532705,3.894049c-2.613281,0.863257 -4.790518,2.137871 -3.92042,6.431411c2.178232,-1.680038 4.574487,-2.754906 7.077263,-3.48467c7.513308,-2.190279 16.006223,-1.216272 22.539924,-5.110322c-1.742188,0 -1.742188,-1.730469 -3.484375,-1.730469c3.484375,-1.730469 6.96875,-3.460938 5.226563,-8.652344c-1.742188,0 -1.742188,1.730469 -3.484375,1.730469c3.484375,-6.921875 -3.484375,-15.574219 3.419665,-20.104092l1.451491,-2.271364c-1.385786,-0.120638 -4.870161,-0.120638 -6.612348,-0.120638c1.742188,-1.730469 3.484375,-1.730469 5.226563,-3.460938c-8.710938,0 -12.195313,8.652344 -19.164063,12.113282c1.741192,3.460938 5.225567,-1.730469 5.225567,0zm-3.484375,6.921875c0.419121,-0.414324 0.834259,-0.930498 1.224509,-1.494136c-0.448987,0.318406 -0.872089,0.796016 -1.224509,1.494136zm404.406522,202.896972l-3.955263,-1.341855l-1.615754,2.580871l-0.087607,5.540467l0.206076,1.975701l0.805388,0.513208l1.837759,-1.428873l1.897491,-0.492442l0.921866,1.522813l1.640643,5.168663l3.20463,5.996322l1.722277,0.17898l-1.790969,-9.5334l0.785478,0.020766l0.901955,0.913688l0.630174,-0.329283l-0.067696,-2.150726l-1.10604,-5.363464l-3.331063,-10.770438l-1.680464,-1.194518l0.155304,3.107922l0.330518,3.319534l-0.452969,1.585109l-0.951732,0.180958zm-1.650598,61.564147l2.772567,0.688232l2.513728,-0.914676l1.555027,-2.939819l1.142875,-3.987989l-0.816339,-1.119366c-3.272326,1.131232 -7.709429,2.384092 -11.016598,3.396663l-2.201129,3.180107l-0.816339,5.076701l0.036835,5.677915l-0.78946,6.137726l-1.382799,5.727357l-0.254857,5.132076l0.919875,4.810703l0.377308,5.630451l-0.320563,5.785699l0.601304,4.062152l1.866629,0.169092l1.174732,-5.294246l-0.554513,-10.675509l1.057259,-3.06738l1.215549,3.172197l0.803397,4.160047l2.138411,2.23181l2.172259,-2.489897l0.085616,-6.202l-2.272808,-7.069212l-0.095571,-2.278286l0.840232,-2.473087l2.562509,-5.132076l-0.204085,-3.080234l-2.376344,1.504025l-2.378335,2.61548l-2.099585,-1.534679l-0.680946,-5.342699l1.609781,-4.964962l2.814379,-0.592315zm4.298723,56.505245l-1.903464,0.074163l-5.903527,3.22856l-3.957255,-0.845458l-1.868621,2.018221l-0.744661,3.881194l1.557018,1.859018l6.216125,-1.666194l7.201705,-6.376036l-0.597321,-2.173469zm-11.858822,-4.564482l-7.697482,0.226444l-3.798964,-0.489475l-2.676996,3.078257l2.757634,4.12346l5.87167,0.718886l1.88654,-0.822714l3.453513,-4.603047c0.067696,-0.747563 0.135393,-1.489192 0.204085,-2.23181zm20.530933,-73.47966l-0.77154,-3.057491l-0.693888,1.460516l-0.21404,4.369681l-0.019911,4.653478l0.466906,8.618723l-0.067696,4.367703l0.281737,4.141259l0.48383,1.060036l0.513696,-0.371804l0.196121,-1.96779l-0.114487,-2.206101l-0.058737,-4.151147l0.848196,-2.391013l1.013455,-1.366576l0.383281,-3.431272l-1.717299,-5.255681l-0.529625,-4.47252zm-6.501844,83.424417l-4.182246,4.636668l-2.105558,3.354143l-1.0035,5.25667l1.248402,2.904221l2.101576,-1.464471l3.974179,-6.656866l8.029991,-10.08715l-4.296732,-0.030654l-3.766112,2.08744zm20.433371,-54.373307l-0.608272,0.514196l-0.616237,4.517018l-0.649089,5.431694l-0.787469,2.440455l-0.659045,-2.057775l-0.227978,-5.480147l0.256848,-6.276163l0.095571,0.004944l-0.693888,-4.572393l-1.102058,-2.380136l-0.567455,0.150304l-1.156813,1.534679l-2.636179,-0.278853l-0.672982,0.50233l-0.309612,2.276308l0.279746,2.364315l0.997527,5.149875l0.227978,0.271931l0.183179,0.476621l0.208067,0.346094l0.426089,0.333239l0.173223,0.445967l0.183179,0.968074l0.21404,0.771295l1.8955,-0.069219l0.285719,0.524085l-0.220013,1.914393l-0.418125,1.410085l-0.746652,0.128549l-0.305629,0.703065l0.005973,2.473087l0.044799,0.815792l0.104531,0.780194l0.034844,0.917643l-0.09358,3.355132l0.020906,1.458538l0.289701,0.246221l0.363371,-0.675377l0.373326,-3.200873l0.357397,-1.041248l0.35242,-0.575504l0.3345,-0.05933l0.330518,0.445967l0.124442,1.571266l0.052763,2.571971l-0.028871,1.023449l1.62571,0.559683l0.230964,1.355699l0.145348,0.149315l0.077652,0.633846l0.026879,0.559683l0.050772,0.328295l0.145348,-0.015821l0.011946,1.072891l0.054754,0.730752l-0.602299,6.910009l-0.355406,4.431978l-0.252866,2.343549l-0.165259,1.161886l-0.126433,1.068935l0.036835,0.396525l-0.089598,0.919621l-0.513696,0.60517l-0.307621,0.686254l-0.412152,2.07063l-0.450978,4.058197l0.097563,1.684982l0.218022,-0.38367l0.391246,-1.977679l0.291692,-1.141121l0.104531,0.113717l0.01792,1.20935l-0.659045,4.269808l-0.238929,1.737391l-0.07367,0.642746l0.114487,-0.597259c3.039371,-16.508672 4.926906,-33.199291 5.662607,-49.943307l-0.772536,-7.813808zm-47.188393,-110.566079l2.523683,6.548094l0.396223,6.086306l1.12396,3.717047l1.763094,2.670855l0.999518,-0.475632l-0.332509,-5.994344l0.418125,-2.595703l2.688942,0.368837l2.927871,2.077551l1.093098,-3.313601l-2.154339,-5.268536l-3.18671,0.088007l-3.741223,-2.870601l-2.496804,-7.082067l-1.423616,-8.965806l-3.088152,-6.531284l-3.684478,-4.091817l-1.262339,-0.279842l-0.452969,1.431839l0.779504,3.012993l1.013455,3.113855l1.142875,5.988411l1.664536,6.152558l3.288255,6.212877zm11.659714,18.812668l-0.807379,1.215284l-0.011946,1.453594l0.901955,4.612935l1.162786,0.692188l1.038344,-0.577482l0.571438,-0.245232l0.252866,-1.004661l-0.271781,-1.611808l-0.396223,-1.657295l-1.127942,-2.180391l-1.312116,-0.697132zm5.085196,0.481565l2.434085,10.531139l0.987571,1.19254l0.54854,-0.811837l-0.479848,-2.468143l-0.766563,-2.727219l-0.534603,-2.697554l0.067696,-2.117105l-0.183179,-1.428873l-0.383281,-1.517868l-1.267317,-2.18138l-1.085134,-0.588359l-0.979607,-0.01681l-0.404188,1.510946l0.925848,1.842208l1.119978,1.478315zm-17.321326,112.820632l3.743214,-2.757873l1.574938,-6.938685c0.003982,-1.7809 -0.005973,-3.559822 -0.022897,-5.335777l0.554513,-2.317839l1.769067,-4.712808l0.647098,-3.014971l0.653071,-6.162447l1.983107,-3.564766l1.470406,-3.920748l-0.77154,-3.282947l-3.344005,-5.582987l-1.641638,-3.664638l0.925848,-6.547105l2.101576,-5.780755l-1.271299,-4.640623l-8.512826,-6.872433l-2.876103,3.277013l-0.844214,9.825107l-0.460933,1.016527c2.035871,19.958733 2.872121,40.106334 2.513728,60.20647l1.808888,0.772284zm-76.540769,110.704516l-2.813384,-6.093228l-6.089692,-0.617036l-3.904491,2.488909l-1.925366,3.920748l-16.077902,20.179244l-17.111268,9.517578l-2.648125,3.046614l-1.94229,3.511368l-0.942772,3.429295l1.052281,22.310193l-8.229098,20.695418l-0.744661,3.584543l-0.616237,7.369819l0.561482,3.079246l6.424192,7.225449l9.496415,1.560388l9.808018,-7.073168l5.294259,-16.320793l21.001822,-43.344782l6.193228,-26.796556l1.530138,-3.114844l1.102058,-3.289868l0.273772,0.390592c0.216031,-1.859018 0.424098,-3.718036 0.620219,-5.58002l-0.330518,1.025426l0.01792,-1.104534zm-187.586806,-447.488353c2.73175,-0.000989 4.528692,-0.001978 5.611835,-0.001978c-1.594848,0 -4.177268,0.000989 -5.611835,0.001978zm-49.82059,-86.52344c-246.328391,0 -445.99901,198.328534 -445.99901,443.000011c0,244.644778 199.670618,443.000011 445.99901,443.000011c246.302507,0 446.001001,-198.355233 446.001001,-443.000011c0,-244.671477 -199.698493,-443.000011 -446.001001,-443.000011zm0,807.155909c-77.845916,0 -150.01031,-24.114824 -209.37311,-65.204064c-0.069688,-0.124594 -0.1115,-0.237321 -0.09358,-0.299618c0.029866,-0.108772 0.29667,-0.163158 0.589357,-0.117672c0.292688,0.044498 0.582388,0.011866 0.644112,-0.071196c0.062719,-0.086029 -0.398214,-0.519141 -1.028388,-0.968074c-0.627188,-0.446955 -1.71929,-1.105522 -2.425125,-1.462493c-0.704839,-0.348071 -1.600821,-0.738663 -1.992067,-0.853368c-0.26979,-0.079107 -1.238446,-0.478598 -2.425125,-0.998728c-19.482634,-14.143369 -37.510791,-30.140811 -53.812688,-47.745117c-0.219018,-0.373781 -0.494781,-0.785138 -0.806384,-1.182652c-0.698866,-0.884022 -1.823821,-2.018221 -2.501781,-2.524507c-0.059732,-0.044498 -0.121455,-0.081085 -0.183179,-0.123605c-1.974147,-2.194234 -3.921415,-4.411212 -5.842799,-6.651922c0.94775,-0.172058 1.396737,-0.858313 1.001509,-1.740357c-0.48383,-1.086734 -2.051799,-3.36502 -3.476411,-5.072746c1.602813,-0.604181 5.251451,-0.609125 7.081246,-4.074018c1.842737,-10.386768 -3.617777,-17.298755 -7.251482,-25.946155c1.823821,-0.002967 3.645652,1.723547 5.466487,3.452038c3.200647,-5.199317 4.807442,-10.498507 5.471464,-15.882737c0.332509,-2.692609 0.429076,-5.403018 0.364366,-8.131226c-0.293683,-15.800663 -13.039527,-29.623648 -9.366996,-43.47432c5.508299,-20.776503 16.487067,-39.831436 20.559804,-61.634354c0.964674,-2.007344 2.087638,-3.967223 3.190692,-5.930069c2.205112,-3.930636 4.327594,-7.890938 4.917946,-12.349614c0.717781,-2.740074 1.078165,-7.478592 0.763576,-10.543005c-0.31658,-3.060458 -0.974629,-6.651922 -1.459455,-7.9829c-0.485821,-1.329989 -1.516201,-3.312612 -2.287741,-4.405279c-0.769549,-1.093656 -5.693469,-4.77906 -10.939942,-8.181656c-5.245478,-3.404574 -9.57108,-6.201011 -9.612893,-6.209911c-0.043804,-0.011866 -0.091589,-0.112728 -0.109509,-0.223478s-0.246893,-0.483542 -0.509714,-0.829636c-0.262821,-0.348071 -0.621214,-0.938409 -0.796429,-1.323067c-0.174219,-0.379714 -0.470888,-0.712953 -0.657054,-0.737674c-0.187161,-0.022743 -0.497768,-0.024721 -0.690902,-0.001978c-0.194129,0.021754 -0.530621,-0.04252 -0.751629,-0.144371c-0.220013,-0.103828 -0.563473,-0.326317 -0.763576,-0.491453c-0.200103,-0.167114 -0.981598,-0.419268 -1.738205,-0.56265c-0.754616,-0.143382 -1.617746,-0.471676 -1.916406,-0.724819c-0.298661,-0.255121 -0.692893,-0.476621 -0.877067,-0.490464c-0.18517,-0.013844 -0.48383,0.011866 -0.665018,0.064275c-0.181188,0.047464 -2.824335,0.026699 -5.872665,-0.040542c-3.04833,-0.069219 -5.782071,0.021754 -6.075755,0.202712c-0.291692,0.185902 -0.581393,1.001694 -0.644112,1.810565s-0.358393,1.623674 -0.656058,1.802654c-0.300652,0.183924 -0.814348,0.336205 -1.141879,0.346094c-0.330518,0.006922 -0.74267,-0.256109 -0.919875,-0.580449c1.636661,-8.8689 -5.641701,-19.240835 -14.768772,-15.763087c0,0 -0.005973,3.459949 -0.00896,5.192395c-7.29429,-1.718603 1.838754,-8.656299 -3.629723,-10.378857c-7.29429,-1.718603 -3.660585,6.927808 -9.137027,8.669154c7.324156,-15.588063 5.524228,-29.428847 -3.572978,-43.259742c-5.451554,-12.104382 -20.035156,-17.273045 -20.350741,-33.258621c-0.611259,-1.859018 -1.471402,-3.710125 -1.911429,-4.115549c-0.438036,-0.403446 -1.570955,0.026699 -2.514723,0.959174c-0.943768,0.930498 -1.939304,1.68696 -2.214071,1.679049c-0.273772,-0.006922 -0.496772,-0.522107 -0.49279,-1.147054c0,-0.62198 0.328527,-2.978384 0.726741,-5.237882c0.089598,-0.515185 0.164263,-1.015538 0.224991,-1.494136c37.530701,-161.529868 183.233328,-281.947753 357.261933,-281.947753c19.219813,0 38.092183,1.476337 56.509594,4.307384c-3.367897,0.839525 -6.574518,1.960868 -9.465554,3.397652c-1.532129,0.379714 -3.058286,0.776239 -4.590415,1.44865c-0.721763,0.168103 -1.497286,0.281819 -2.385304,0.281819c3.078196,1.019493 5.551107,-0.364882 7.783098,-1.673116c-0.571438,0.053397 -1.093098,0.159203 -1.596839,0.279842c0.377308,-0.103828 0.740679,-0.239299 1.125951,-0.336205l0.563473,0c0.153313,-0.089984 0.310607,-0.179969 0.460933,-0.267975c0.069688,-0.017799 0.142362,-0.039554 0.21404,-0.056364c2.3415,-0.540895 4.736759,-0.973018 7.132018,-1.406129c1.773049,0 3.543112,0.443989 5.086192,0.429156c-1.405696,0.765362 -2.809402,1.468426 -4.215098,2.166547c-2.61129,0.863257 -4.353478,2.593726 -7.837853,4.324194l5.226563,0c-1.742188,1.730469 -1.742188,1.730469 -3.484375,3.460938l1.742188,0c-5.226563,1.730469 -8.710938,1.730469 -13.9375,1.730469c1.742188,-3.460938 6.96875,0 10.453125,-3.460938c-15.679688,0 -29.617188,3.460938 -45.078853,7.499357c-2.317607,0.823703 -4.604353,1.727502 -6.859241,2.713375c-2.703875,1.182652 -5.36096,2.485942 -7.965281,3.912837c-6.300746,3.179118 -16.753871,8.370525 -13.269496,11.831462s6.96875,4.326172 10.453125,5.624518c1.742188,0.648679 3.484375,1.406129 5.209638,2.651078c1.759112,2.108205 3.501299,3.838674 5.243487,5.569143c10.454121,1.72948 19.165058,-10.383802 10.454121,-19.036146c2.613281,-1.730469 4.790518,-4.326172 7.186772,-6.705319c2.395259,-2.379147 5.00854,-4.542728 8.492915,-5.407962c-5.226563,1.730469 -5.226563,8.652344 -3.484375,10.382813c3.484375,2.595703 7.404795,0.865234 11.542241,-1.08179c4.137446,-1.947025 8.492915,-4.109616 12.848384,-2.379147c-1.306143,1.297357 -3.592888,2.16358 -6.152411,2.920042c-2.560518,0.756462 -5.38983,1.406129 -7.785089,2.271364c-5.226563,0 -6.96875,6.921875 -3.484375,10.382813c-1.742188,-1.730469 -5.226563,-1.730469 -6.96875,-1.730469c-1.742188,17.304688 -22.649433,19.035157 -34.844746,12.113282c1.742188,0 5.226563,1.730469 6.96875,-1.730469c0,-3.460938 -1.742188,-3.460938 -5.226563,-1.72948c0,-1.731458 0,-5.192395 0,-5.192395c-6.96875,-1.730469 -6.96875,6.921875 -6.96875,12.113282c-1.742188,0 -5.226563,-1.730469 -6.96875,-1.730469c-14.517897,10.094072 -27.824228,15.381395 -42.949402,20.869454c-3.025433,1.097612 -6.121549,2.194234 -9.316223,3.25427c8.710938,3.563777 8.710938,19.137996 0,17.407527c-22.648438,-6.921875 -48.780255,-12.113282 -52.26463,15.574219c0,3.460938 -5.226563,8.652344 -1.742188,12.113282c13.9375,10.382813 33.099572,10.382813 48.779259,3.460938c5.226563,-1.730469 8.710938,-10.382813 14.968875,-12.067795c2.640161,-1.134199 5.298241,-2.279275 7.68454,-3.898005c2.361411,-1.645429 4.454027,-3.767478 5.941357,-6.88331c2.997558,-2.463199 6.342558,-3.758578 9.94142,-4.520973c3.599857,-0.761406 7.457558,-0.988839 11.482509,-1.315156c2.682969,-0.217545 5.443589,-0.478598 8.251996,-0.963129c11.417799,10.613212 30.564938,23.4968 37.533688,39.071019c1.742188,-5.191406 6.723848,-12.220076 13.692598,-5.298201c-6.96875,-12.113282 -32.838741,-23.158617 -34.580929,-40.463305c17.421875,12.112293 34.84375,20.764637 47.039063,41.530262c1.742188,1.730469 6.96875,3.460938 10.453125,1.730469c5.22258,-3.460938 3.92042,-6.056641 2.178232,-8.652344s-3.92042,-5.191406 -0.436045,-8.652344c1.742188,-3.460938 3.04833,-2.595703 4.504799,-0.375759c11.174889,24.602322 44.276451,12.48904 56.471764,22.871853c17.421875,13.84375 -10.453125,31.148438 -31.359375,27.687501c-12.195313,-3.460938 -22.648438,-5.191406 -32.360884,-8.839235c-2.164295,-0.583415 -4.255915,-1.147054 -6.236036,-1.681027c-2.428112,-0.202712 -5.579978,0.177002 -7.003594,0.84348c-1.421625,0.6645 -2.980634,2.441444 -3.453513,3.945469c-0.479848,1.505013 -0.840232,3.553888 -0.803397,4.552616c0.032853,0.999717 -0.964674,2.463199 -2.217058,3.255259c-1.260348,0.789094 -4.610326,0.243254 -7.446607,-1.215284c-2.844246,-1.458538 -5.823884,-2.821159 -6.622304,-3.027826c-0.795433,-0.206667 -4.235009,-1.829353 -7.641732,-3.605308c-1.701371,-0.886989 -4.039884,-1.824409 -6.42917,-2.620424c-12.12463,-0.259076 -26.06213,-8.91142 -19.09338,-22.75517c-11.324219,-4.326172 -23.519532,-5.191406 -35.495826,-3.677493c-2.994571,0.378725 -5.980183,0.899844 -8.948871,1.540612c-16.529875,5.59683 -32.209563,5.59683 -49.631438,5.59683c-12.193322,0 -20.904259,13.84375 -26.448398,24.887108c-1.317094,1.938125 -2.742701,3.78231 -4.25492,5.533545c-6.046884,7.004938 -13.346152,12.640333 -21.309442,15.697824c-3.31613,1.642462 -6.362469,3.502469 -9.163906,5.555299c-22.421456,16.41671 -29.294634,45.128648 -35.779554,72.399848c-0.632165,0.963129 -1.456469,2.518574 -1.827804,3.455005c-0.373326,0.93742 -0.500754,3.183074 -0.283728,4.991661c0.218022,1.806609 0.113491,4.83938 -0.23196,6.735973c-0.344455,1.897583 -0.646103,4.207511 -0.669996,5.133065c-0.022897,0.925554 0.354411,2.108205 0.839237,2.62438c0.485821,0.519141 1.483348,0.994772 2.216063,1.058058c2.452004,2.349482 4.400268,4.977817 6.051862,7.731735c1.651594,2.755895 3.006518,5.638362 4.267862,8.521817c13.423804,45.061407 63.947242,41.60047 99.59439,27.520387c2.922893,-0.615058 5.816915,-1.223194 8.607402,-1.812542c2.792478,-0.587371 5.484406,-1.152987 7.998134,-1.681027c6.138473,0.806893 11.31725,2.06173 11.504411,2.787538c0.18517,0.725808 0.600308,1.677071 0.914897,2.115127c0.31658,0.438056 0.90992,1.091679 1.316098,1.451616c0.405183,0.359938 0.972638,1.034326 1.261344,1.498092c0.285719,0.462777 0.685924,1.259781 0.893991,1.771011c0.204085,0.510241 1.135906,1.472382 2.068723,2.138859c0.931821,0.667467 5.497348,1.140132 10.131567,1.065969c6.762674,-0.443989 10.247049,3.016949 13.731424,8.208355c6.96875,15.574219 -5.226563,32.878907 9.637781,44.474037c0.687915,0.63879 2.162304,2.569993 3.978161,5.166685c1.815857,2.597681 3.978161,5.861839 6.041906,9.161596c4.132469,6.607424 8.122576,16.324748 8.86425,21.597239c0.745656,5.269525 2.191174,10.967217 3.21558,12.661099c1.019429,1.689926 1.359902,5.888538 0.751629,9.332665c-0.307621,1.721569 -0.981598,3.962279 -1.84871,6.201011c-7.991165,10.81098 -13.217728,24.654731 -11.47554,36.768012c6.96875,20.765626 20.90625,39.800782 25.185063,61.493939c0,0 0,0 0.013938,2.35146c0.599313,1.854074 1.707344,3.892072 2.469924,4.524929c0.76258,0.636813 1.613763,1.471393 1.891518,1.855063c0.275763,0.388614 0.803397,0.958185 1.164777,1.263737c0.363371,0.308518 0.799415,0.626924 0.962683,0.70702c0.163268,0.081085 1.230482,2.014266 2.372362,4.298484c1.139888,2.281252 3.284272,5.629462 4.759656,7.439038s3.202638,5.223049 3.82883,7.586375c0.630174,2.365304 0.83625,4.74544 0.458942,5.295235c-0.373326,0.551772 -0.785478,1.544567 -0.911911,2.211045c-0.126433,0.670433 -0.003982,1.894616 0.275763,2.730185c0.277754,0.831614 1.564982,2.71733 2.860174,4.186746c1.297183,1.473371 3.056295,3.191973 3.910464,3.820875c0.851183,0.626924 3.569991,1.23506 6.036929,1.34581c2.467933,0.111739 5.214616,0.006922 6.107612,-0.234355c0.889013,-0.241277 2.209094,-0.970051 2.925879,-1.624663c0.721763,-0.653623 1.854683,-1.895605 2.521692,-2.764795c0.667009,-0.867212 8.955839,-1.84023 18.421393,-2.16358c8.484951,-4.067096 19.798219,-9.493846 28.279188,-13.56292c4.755674,-4.853223 9.364009,-10.330404 10.243067,-12.166679c0.875076,-1.836275 4.042871,-5.088567 7.04242,-7.223471c2.998554,-2.133915 5.934388,-6.525351 6.523746,-9.757866c0.585375,-3.229549 2.025915,-6.936708 3.192683,-8.23011c4.065768,-4.93233 12.776706,-4.93233 12.776706,-10.123737c3.484375,-19.035157 10.453125,-34.609376 23.262683,-50.80162c1.650598,-2.703487 3.229518,-5.450482 4.718839,-8.235054c8.945884,-16.707429 14.690125,-34.799233 13.362081,-53.556526c-0.732714,-2.137871 -1.41167,-4.223333 -1.970165,-6.266275c-10.048938,-36.791744 20.276076,-59.337281 55.405545,-74.53673c0.892,-2.162592 1.794951,-4.45571 2.712835,-6.836835c2.735732,-7.144364 5.579978,-15.083755 8.269915,-22.668152c0.893991,-2.528462 1.771058,-5.016382 2.623237,-7.422228c4.857219,-5.020337 3.115031,-11.942212 3.115031,-17.133619c-10.453125,5.191406 -20.90625,3.460938 -30.931295,5.379286c-2.346478,0.191835 -4.606344,0.380703 -6.689005,0.554739c-1.722277,-0.446955 -3.737241,-1.173752 -4.47792,-1.616752c-0.74267,-0.442011 -5.788045,-3.244382 -11.0385,-5.61463c-4.790518,-2.16358 -5.716366,-4.732585 -9.147978,-6.921875c-1.715308,-1.095634 -4.532674,-7.827652 -6.53171,-9.517578c-2.003018,-1.688938 -5.220589,-6.314728 -6.532705,-7.78711c-6.325634,-8.547527 -11.759268,-16.007331 -16.985831,-26.390144c-6.96875,-10.382813 -15.679688,-20.765626 -21.624031,-33.092496c-1.674491,-2.243676 -3.402741,-4.44681 -5.17579,-6.607424c-1.77504,-2.160614 -3.592888,-4.27673 -5.452549,-6.34736c-4.334563,-4.136315 -6.07675,-5.866784 -9.159924,-9.419683c-1.248402,-1.042237 -0.754616,-2.561094 1.100067,-3.376886c10.69504,-5.184485 7.210665,10.389735 15.870831,9.554165c1.973152,1.943069 3.9025,3.923714 5.799991,5.936991c1.8955,2.014266 3.760138,4.060174 5.593915,6.135748c2.448022,2.766772 4.845272,5.584964 7.207679,8.443699c9.324188,11.467569 18.035125,23.580851 27.185094,35.560639c1.112013,1.211328 2.5645,3.383808 4.007031,5.909304c1.438549,2.524507 2.872121,5.40104 3.947299,8.019487c5.541152,31.19788 40.384902,15.623661 59.548965,8.701786c10.453125,-5.191406 22.648438,-10.382813 24.390625,-22.496094c5.226563,-24.226563 -13.9375,-38.070313 -29.617188,-51.914064c-1.742188,13.84375 -17.421875,13.84375 -22.450326,3.464893c-1.50525,-1.734424 -2.811393,-3.464893 -3.682487,-5.195362c0,1.730469 -1.742188,3.460938 -1.742188,5.191406c-3.484375,-8.652344 -10.453125,-17.304688 -15.679688,-24.226563c8.710938,0 15.679688,5.191406 25.125331,9.284212c2.883071,1.278569 5.761165,2.566038 8.649214,3.839663c17.30938,7.640761 34.87063,14.909719 56.821197,12.832168c4.355469,-0.865234 6.96875,2.595703 8.492915,7.570554c0.76258,2.48792 1.252384,5.353576 1.555027,8.241976c0.301647,2.887411 0.439031,5.792621 0.491795,8.370525c1.958219,-2.711397 3.721313,-5.5464 5.265388,-8.482264c1.540094,-2.937842 2.842254,-5.96369 3.921415,-9.060735c6.05883,-17.364018 5.144929,-36.931171 0.103536,-55.349292c42.830934,59.598334 68.040885,132.558854 68.040885,211.371324c0.001991,201.115083 -164.144926,364.157875 -366.620964,364.157875zm52.266621,-722.362938c-1.197629,0.595281 -2.391277,0.978951 -3.588906,1.305268c1.240438,-0.713942 2.414174,-1.305268 3.588906,-1.305268zm-4.322616,1.730469c-0.028871,0.018788 -0.063714,0.037576 -0.095571,0.056364c0.299656,-0.027688 0.601304,-0.056364 0.933813,-0.056364l-0.838241,0z"/>
  </g>
  <g id="svg_3"/>
  <g id="svg_4"/>
  <g id="svg_5"/>
  <g id="svg_6"/>
  <g id="svg_7"/>
  <g id="svg_8"/>
  <g id="svg_9"/>
  <g id="svg_10"/>
  <g id="svg_11"/>
  <g id="svg_12"/>
  <g id="svg_13"/>
  <g id="svg_14"/>
  <g id="svg_15"/>
  <g id="svg_16"/>
  <g id="svg_17"/>
  <path id="svg_20" d="m295.022537,367.5l0,0c0,-92.507684 74.992328,-167.499995 167.500034,-167.499995l0,0c44.423752,0 87.02806,17.64726 118.440387,49.059602c31.412361,31.412353 49.059647,74.016618 49.059647,118.440393l0,0c0,92.507673 -74.992328,167.499995 -167.500034,167.499995l0,0c-92.507695,0 -167.500034,-74.992322 -167.500034,-167.499995zm83.750017,0l0,0c0,46.253831 37.496187,83.749997 83.750017,83.749997c46.253864,0 83.750017,-37.496167 83.750017,-83.749997c0,-46.253831 -37.496175,-83.749997 -83.750017,-83.749997l0,0c-46.25383,0 -83.750017,37.496178 -83.750017,83.749997z" stroke-width="99" fill="none"/>
 </g>
</svg>